<svg xmlns="http://www.w3.org/2000/svg" width="160" height="93.125" viewBox="0 0 512 298">
  <metadata><?xpacket begin="﻿" id="W5M0MpCehiHzreSzNTczkc9d"?>
<x:xmpmeta xmlns:x="adobe:ns:meta/" x:xmptk="Adobe XMP Core 5.6-c140 79.160451, 2017/05/06-01:08:21        ">
   <rdf:RDF xmlns:rdf="http://www.w3.org/1999/02/22-rdf-syntax-ns#">
      <rdf:Description rdf:about=""/>
   </rdf:RDF>
</x:xmpmeta>
                                                                                                    
                                                                                                    
                                                                                                    
                                                                                                    
                                                                                                    
                                                                                                    
                                                                                                    
                                                                                                    
                                                                                                    
                                                                                                    
                                                                                                    
                                                                                                    
                                                                                                    
                                                                                                    
                                                                                                    
                                                                                                    
                                                                                                    
                                                                                                    
                                                                                                    
                                                                                                    
                           
<?xpacket end="w"?></metadata>
<defs>
    <style>
      .cls-1, .cls-2 {
        stroke: #000;
        stroke-linecap: round;
        stroke-linejoin: round;
        stroke-width: 8px;
        fill-rule: evenodd;
      }

      .cls-2 {
        fill: none;
      }
    </style>
  </defs>
  <path class="cls-1" d="M62.27,207.907s-47.158-25.218-41.513-41.581c5.856-16.978,27.676,6.93,27.676,6.93s-3.595-29.623,6.919-31.186c9.8-1.457,10.851,17.11,10.378,34.651A205.673,205.673,0,0,1,62.27,207.907Z"/>
  <path class="cls-1" d="M155.676,284.14s-36.97-14.823-34.595-20.791c4.691-11.791,20.757,0,20.757,0s5.328-13.308,10.378-10.4C160.861,257.94,155.676,284.14,155.676,284.14Z"/>
  <path class="cls-1" d="M197.189,135.14s-19.956-23.807-10.378-34.652c5.034-5.7,13.838,6.931,13.838,6.931s13.888-12.04,13.837-6.931C214.309,118.577,197.189,135.14,197.189,135.14Z"/>
  <path class="cls-1" d="M439.351,194.047s-16.884-36.768,3.46-45.047c8.809-3.585,6.919,10.4,6.919,10.4s11.964-1.831,10.378,3.465C457.034,173.124,439.351,194.047,439.351,194.047Z"/>
  <g>
    <path class="cls-2" d="M359.784,232.163l-3.46-34.651"/>
    <path class="cls-2" d="M345.946,228.7l27.676-27.721"/>
    <path class="cls-2" d="M342.486,207.907l27.676,17.326"/>
  </g>
  <g>
    <path class="cls-2" d="M342.486,86.628s12.751,1.531,24.217,0a145.5,145.5,0,0,0,27.675-6.93"/>
    <path class="cls-2" d="M356.324,72.767L366.7,100.488"/>
    <path class="cls-2" d="M370.162,72.767L356.324,97.023"/>
  </g>
  <g>
    <path class="cls-2" d="M51.892,228.7A79.106,79.106,0,0,1,62.27,246.023a131.678,131.678,0,0,1,6.919,24.256"/>
    <path class="cls-2" d="M51.892,259.884a142.778,142.778,0,0,1,6.919-17.326,54.219,54.219,0,0,1,6.919-10.395"/>
    <path class="cls-2" d="M41.514,242.558a123.4,123.4,0,0,1,20.757,3.465,92.945,92.945,0,0,1,17.3,6.93"/>
  </g>
  <g id="Letters">
    <path id="R" class="cls-2" d="M107.243,252.953s-13.174-9.71-17.3-31.186c-4.508-23.481,0-58.907,0-58.907s29.189-23.8,48.432,0c23.831,29.473-44.973,41.582-44.973,41.582s9.127,19.9,27.676,27.721c13.5,5.693,34.595-3.465,34.595-3.465"/>
    <g id="I">
      <path class="cls-2" d="M169.514,183.651s11.384-7.266,20.756-10.4a66.569,66.569,0,0,1,20.757-3.465"/>
      <path class="cls-2" d="M176.432,239.093l44.973-38.116"/>
      <path class="cls-2" d="M200.649,218.3l-6.919-41.581"/>
    </g>
    <path id="S" class="cls-2" d="M235.243,221.767l6.919-20.79s13.96,19.334,34.6,20.79c8.75,0.618,27.851-5.847,24.216-24.255-2.69-13.624-80.1,2.784-69.189-34.652,16.1-55.266,46.771-4.507,65.73-6.93,10.529-1.345,3.459-27.721,3.459-27.721"/>
    <g id="A">
      <path class="cls-2" d="M321.73,200.977s-2.785-82.739,20.756-86.628c21.151-3.494,44.973,72.767,44.973,72.767"/>
      <path class="cls-2" d="M321.73,162.86s76.717-5.926,103.784-24.255c50.839-34.428,87.62-112.671,44.972-121.279C448.973,12.983,442.811,69.3,442.811,69.3s-12.593-52.079-27.676-41.581C395.653,41.28,400.11,64.193,411.676,79.7c11.875,15.919,31.135,24.255,31.135,24.255"/>
    </g>
  </g>
</svg>
